<?xml version="1.0" standalone="no"?>
<!DOCTYPE svg PUBLIC "-//W3C//DTD SVG 20010904//EN"
 "http://www.w3.org/TR/2001/REC-SVG-20010904/DTD/svg10.dtd">
<svg version="1.0" xmlns="http://www.w3.org/2000/svg"
 width="225.000000pt" height="225.000000pt" viewBox="0 0 225.000000 225.000000"
 preserveAspectRatio="xMidYMid meet">
<metadata>
Created by potrace 1.16, written by Peter Selinger 2001-2019
</metadata>
<g transform="translate(0.000000,225.000000) scale(0.100000,-0.100000)"
fill="#000000" stroke="none">
<path d="M582 2228 c-172 -21 -364 -89 -452 -158 -74 -58 -70 -15 -70 -815 0
-795 -5 -741 69 -808 92 -83 273 -145 497 -171 l51 -6 5 78 c11 193 157 340
348 351 l75 4 39 59 c41 64 112 125 185 163 57 28 145 55 183 55 l28 0 0 495
c0 547 2 524 -64 583 -93 82 -244 138 -448 167 -113 16 -331 18 -446 3z m542
-122 c103 -27 179 -64 196 -96 49 -92 -102 -167 -387 -192 -230 -20 -477 13
-595 80 -123 69 -76 151 115 202 122 33 188 39 387 35 159 -3 199 -7 284 -29z
m-579 -722 c11 -4 15 -21 15 -56 0 -50 0 -50 -27 -42 -52 15 -107 11 -111 -8
-2 -12 14 -26 56 -47 76 -38 102 -71 102 -127 0 -52 -34 -97 -87 -115 -36 -12
-169 -9 -191 5 -7 4 -12 31 -12 63 0 49 2 54 18 48 89 -38 132 -40 132 -6 0
11 -18 26 -50 41 -58 27 -88 56 -98 96 -26 99 61 171 191 158 26 -3 54 -7 62
-10z m366 -14 c116 -60 134 -251 32 -341 l-36 -31 54 -49 c30 -26 57 -48 62
-49 4 0 7 -4 7 -10 0 -6 -31 -10 -73 -10 l-73 0 -48 49 c-29 29 -61 51 -79 55
-104 21 -175 141 -147 248 37 142 172 203 301 138z m279 -132 l0 -153 67 0 68
0 0 -50 0 -50 -130 0 -130 0 -3 203 -2 202 65 0 65 0 0 -152z"/>
<path d="M770 1272 c-37 -30 -40 -131 -4 -166 21 -21 67 -20 87 2 50 55 21
182 -42 182 -10 0 -29 -8 -41 -18z"/>
<path d="M1495 920 c-144 -22 -271 -114 -338 -246 -16 -31 -17 -32 -94 -31
-64 1 -88 -3 -133 -24 -120 -56 -181 -143 -188 -270 -6 -100 14 -162 75 -229
25 -28 69 -63 97 -78 l51 -27 545 -3 c395 -2 552 1 572 9 69 28 116 121 104
204 -9 59 -72 128 -131 144 l-40 10 3 76 c7 159 -74 314 -208 400 -83 53 -214
80 -315 65z m250 -84 c121 -60 201 -166 226 -302 10 -56 9 -95 -7 -171 l-6
-33 41 0 c85 0 141 -56 141 -142 0 -39 -6 -54 -31 -83 -17 -19 -47 -40 -67
-45 -25 -8 -205 -10 -547 -8 l-510 3 -51 27 c-90 47 -154 149 -154 242 0 94
68 204 154 248 43 23 152 31 207 16 24 -7 27 -4 48 47 42 101 136 185 256 228
38 13 71 17 138 14 77 -4 98 -9 162 -41z"/>
</g>
</svg>
